<?xml version="1.0" encoding="utf-8"?>
<!-- Generator: Adobe Illustrator 22.1.0, SVG Export Plug-In . SVG Version: 6.00 Build 0)  -->
<svg version="1.1" id="Capa_1" xmlns="http://www.w3.org/2000/svg" xmlns:xlink="http://www.w3.org/1999/xlink" x="0px" y="0px"
	 viewBox="0 0 148 148" style="enable-background:new 0 0 148 148;" xml:space="preserve">
<style type="text/css">
	.st0{fill:#325097;}
	.st1{fill:#A4A5A6;}
	.st2{fill:none;}
	.st3{fill:#D5D845;}
	.st4{fill:#C42680;}
	.st5{fill:#1C7CBD;}
	.st6{fill:#D88837;}
	.st7{fill:#2D4E8F;}
	.st8{fill:#848586;}
	.st9{fill:none;stroke:#848586;stroke-width:0.3132;stroke-miterlimit:10;}
	.st10{fill:#4275B6;}
	.st11{fill:#CCD246;}
	.st12{fill:#BF0B77;}
	.st13{fill:#D68536;}
	.st14{fill:#B4C635;}
	.st15{fill:#878786;}
	.st16{fill-rule:evenodd;clip-rule:evenodd;fill:#D7862A;}
	.st17{clip-path:url(#SVGID_2_);fill-rule:evenodd;clip-rule:evenodd;fill:#6BADDD;}
	.st18{fill-rule:evenodd;clip-rule:evenodd;fill:#DCD933;}
	.st19{fill:none;stroke:#B1B1B0;stroke-miterlimit:10;}
	.st20{fill:#848585;}
	.st21{fill:#FFFFFF;}
	.st22{fill:#CDD333;}
	.st23{fill:#C52681;}
	.st24{fill:#4374B6;}
	.st25{clip-path:url(#SVGID_4_);fill:#848585;}
	.st26{fill:#477CBD;}
	.st27{fill:#004C94;}
	.st28{fill:#C3007A;}
	.st29{fill:#009CDF;}
	.st30{fill:#D98918;}
	.st31{fill:#B0B0B0;}
	.st32{fill:#0081C6;}
	.st33{fill:#91649D;}
	.st34{fill:#98C8E8;}
	.st35{fill:#E8BC35;}
	.st36{fill:#C96FA0;}
	.st37{fill:#93B861;}
	.st38{fill:#4BA9D5;}
	.st39{fill:#7AA33C;}
	.st40{fill:#182B46;}
	.st41{fill:#4E8AA7;}
	.st42{fill:#F2E444;}
	.st43{fill:#B22322;}
	.st44{fill:#CA7D3C;}
	.st45{fill:#854084;}
	.st46{clip-path:url(#SVGID_6_);fill-rule:evenodd;clip-rule:evenodd;fill:#6BADDD;}
	.st47{fill:none;stroke:#B1B1B0;stroke-width:2.5618;stroke-miterlimit:10;}
	.st48{fill:none;stroke:#848586;stroke-width:0.8024;stroke-miterlimit:10;}
	.st49{clip-path:url(#SVGID_8_);fill:#848585;}
	.st50{fill:#F5F5F5;}
	.st51{clip-path:url(#SVGID_10_);fill-rule:evenodd;clip-rule:evenodd;fill:#6BADDD;}
	.st52{clip-path:url(#SVGID_12_);fill:#848585;}
</style>
<g>
	<g>
		<rect x="9.9" y="89.8" class="st31" width="1.6" height="8.5"/>
		<path class="st31" d="M13.6,89.8h1.6l3.2,4.9c0.3,0.5,0.7,1.3,0.7,1.3h0c0,0-0.1-0.8-0.1-1.3v-4.9h1.5v8.5H19l-3.2-4.9
			c-0.3-0.5-0.7-1.3-0.7-1.3h0c0,0,0.1,0.8,0.1,1.3v4.9h-1.6V89.8z"/>
		<path class="st31" d="M22.9,96.1c0,0,0.9,0.9,2.1,0.9c0.6,0,1.2-0.3,1.2-1c0-1.5-4-1.3-4-3.9c0-1.4,1.2-2.5,2.9-2.5
			c1.7,0,2.5,0.9,2.5,0.9L27,91.8c0,0-0.8-0.7-1.9-0.7c-0.7,0-1.3,0.4-1.3,1c0,1.5,4,1.1,4,3.9c0,1.4-1,2.5-2.8,2.5
			c-1.9,0-2.9-1.2-2.9-1.2L22.9,96.1z"/>
		<polygon class="st31" points="31.2,91.1 28.4,91.1 28.4,89.8 35.5,89.8 35.5,91.1 32.7,91.1 32.7,98.3 31.2,98.3 		"/>
		<rect x="36.6" y="89.8" class="st31" width="1.6" height="8.5"/>
		<polygon class="st31" points="42.1,91.1 39.3,91.1 39.3,89.8 46.5,89.8 46.5,91.1 43.7,91.1 43.7,98.3 42.1,98.3 		"/>
		<path class="st31" d="M47.5,89.8H49v5.5c0,1.1,0.7,1.8,1.9,1.8c1.1,0,1.9-0.6,1.9-1.8v-5.5h1.6v5.5c0,1.9-1.4,3.2-3.4,3.2
			c-2.1,0-3.5-1.3-3.5-3.2V89.8z"/>
		<polygon class="st31" points="58.2,91.1 55.4,91.1 55.4,89.8 62.5,89.8 62.5,91.1 59.7,91.1 59.7,98.3 58.2,98.3 		"/>
		<path class="st31" d="M67.4,89.6c2.5,0,4.4,1.9,4.4,4.4c0,2.5-1.9,4.5-4.4,4.5c-2.5,0-4.4-2-4.4-4.5C63,91.5,64.9,89.6,67.4,89.6
			 M67.4,97c1.6,0,2.8-1.3,2.8-3.1c0-1.7-1.2-2.9-2.8-2.9c-1.6,0-2.8,1.2-2.8,2.9C64.6,95.7,65.9,97,67.4,97"/>
	</g>
	<g>
		<polygon class="st31" points="14.4,105.5 19.3,105.5 19.3,106.9 15.9,106.9 15.9,109.3 18.7,109.3 18.7,110.6 15.9,110.6 
			15.9,114.1 14.4,114.1 		"/>
		<polygon class="st31" points="20.7,105.5 25.8,105.5 25.8,106.9 22.3,106.9 22.3,109.1 25.1,109.1 25.1,110.4 22.3,110.4 
			22.3,112.7 26,112.7 26,114.1 20.7,114.1 		"/>
		<path class="st31" d="M27.6,105.5h2.9c2.6,0,4.4,1.6,4.4,4.3c0,2.7-1.7,4.3-4.4,4.3h-2.9V105.5z M30.4,112.7c1.7,0,2.8-1,2.8-2.9
			c0-1.9-1.1-2.9-2.8-2.9h-1.3v5.9H30.4z"/>
		<polygon class="st31" points="36.5,105.5 41.6,105.5 41.6,106.9 38.1,106.9 38.1,109.1 40.9,109.1 40.9,110.4 38.1,110.4 
			38.1,112.7 41.8,112.7 41.8,114.1 36.5,114.1 		"/>
		<path class="st31" d="M43.4,105.5h2.8c0.9,0,1.3,0.1,1.7,0.2c0.9,0.4,1.4,1.2,1.4,2.3c0,1-0.5,2-1.4,2.3v0c0,0,0.1,0.1,0.3,0.4
			l1.8,3.2h-1.7l-1.7-3.2H45v3.2h-1.6V105.5z M46.4,109.5c0.8,0,1.3-0.5,1.3-1.3c0-0.8-0.3-1.3-1.6-1.3H45v2.7H46.4z"/>
		<rect x="51.3" y="105.5" class="st31" width="1.6" height="8.5"/>
		<path class="st31" d="M58.8,105.4c2.1,0,3.2,1.2,3.2,1.2l-0.7,1.2c0,0-1-0.9-2.3-0.9c-1.8,0-2.9,1.3-2.9,2.9
			c0,1.6,1.1,3.1,2.9,3.1c1.5,0,2.5-1.1,2.5-1.1l0.8,1.1c0,0-1.2,1.4-3.4,1.4c-2.6,0-4.4-1.9-4.4-4.4
			C54.4,107.3,56.3,105.4,58.8,105.4"/>
		<path class="st31" d="M67.4,105.4c2.5,0,4.4,1.9,4.4,4.4c0,2.5-1.9,4.5-4.4,4.5c-2.5,0-4.4-2-4.4-4.5
			C63,107.3,64.9,105.4,67.4,105.4 M67.4,112.8c1.6,0,2.8-1.3,2.8-3.1c0-1.7-1.2-2.9-2.8-2.9c-1.6,0-2.8,1.2-2.8,2.9
			C64.6,111.5,65.9,112.8,67.4,112.8"/>
	</g>
	<g>
		<path class="st31" d="M3.1,119.8h1.7l1.9,5.6c0.2,0.5,0.3,1.3,0.3,1.3h0c0,0,0.2-0.8,0.3-1.3l1.9-5.6h1.7l-3.1,8.5H6.2L3.1,119.8z
			"/>
		<rect x="11.9" y="119.8" class="st31" width="1.6" height="8.5"/>
		<polygon class="st31" points="15.6,119.8 17.2,119.8 17.2,127 20.9,127 20.9,128.4 15.6,128.4 		"/>
		<polygon class="st31" points="22.1,119.8 23.6,119.8 23.6,127 27.3,127 27.3,128.4 22.1,128.4 		"/>
		<path class="st31" d="M33.1,126.2h-3l-0.7,2.2h-1.6l3-8.5h1.6l3,8.5h-1.6L33.1,126.2z M31.6,121.3c0,0-0.2,0.8-0.4,1.3l-0.8,2.3
			h2.2l-0.8-2.3C31.8,122.2,31.6,121.3,31.6,121.3L31.6,121.3z"/>
		<path class="st31" d="M36.5,119.8h2.8c0.9,0,1.3,0.1,1.7,0.2c0.9,0.4,1.4,1.2,1.4,2.3c0,1-0.5,2-1.4,2.3v0c0,0,0.1,0.1,0.3,0.4
			l1.8,3.2h-1.7l-1.7-3.2H38v3.2h-1.6V119.8z M39.4,123.8c0.8,0,1.3-0.5,1.3-1.3c0-0.8-0.3-1.3-1.6-1.3H38v2.7H39.4z"/>
		<path class="st31" d="M44.3,119.8H47c0.9,0,1.3,0.1,1.7,0.2c0.9,0.4,1.4,1.2,1.4,2.3c0,1-0.5,2-1.4,2.3v0c0,0,0.1,0.1,0.3,0.4
			l1.8,3.2H49l-1.7-3.2h-1.5v3.2h-1.6V119.8z M47.2,123.8c0.8,0,1.3-0.5,1.3-1.3c0-0.8-0.3-1.3-1.6-1.3h-1.2v2.7H47.2z"/>
		<g>
			<polygon class="st31" points="52,119.8 57.1,119.8 57.1,121.2 53.6,121.2 53.6,123.4 56.4,123.4 56.4,124.8 53.6,124.8 53.6,127 
				57.3,127 57.3,128.4 52,128.4 			"/>
			<path class="st31" d="M63.2,126.2h-3l-0.7,2.2h-1.6l3-8.5h1.6l3,8.5h-1.6L63.2,126.2z M61.7,121.3c0,0-0.2,0.8-0.4,1.3l-0.8,2.3
				h2.2l-0.8-2.3C61.9,122.2,61.7,121.3,61.7,121.3L61.7,121.3z"/>
			<polygon class="st31" points="66.6,119.8 68.1,119.8 68.1,127 71.8,127 71.8,128.4 66.6,128.4 			"/>
		</g>
	</g>
	<path class="st32" d="M63.4,69.1H14.7c-3.9,0-7.2-3.2-7.2-7.2V13.2c0-3.9,3.2-7.2,7.2-7.2h48.7c3.9,0,7.2,3.2,7.2,7.2v48.7
		C70.6,65.8,67.3,69.1,63.4,69.1"/>
	<path class="st30" d="M135.6,69.1H86.8c-3.9,0-7.2-3.2-7.2-7.2V13.2c0-3.9,3.2-7.2,7.2-7.2h48.7c3.9,0,7.2,3.2,7.2,7.2v48.7
		C142.7,65.8,139.5,69.1,135.6,69.1"/>
	<path class="st30" d="M135.6,139.9H86.8c-3.9,0-7.2-3.2-7.2-7.2V84c0-3.9,3.2-7.2,7.2-7.2h48.7c3.9,0,7.2,3.2,7.2,7.2v48.7
		C142.7,136.7,139.5,139.9,135.6,139.9"/>
	<polygon class="st21" points="100.2,18.9 123,18.9 123,25.1 107.4,25.1 107.4,36.4 120.6,36.4 120.6,42.6 107.4,42.6 107.4,58.7 
		100.2,58.7 	"/>
	<path class="st21" d="M94.2,89.6h7.8l8.7,25.9c0.8,2.3,1.5,5.8,1.5,5.8h0.1c0.1,0,0.7-3.5,1.5-5.8l8.8-25.9h7.7l-14.5,39.8h-7.2
		L94.2,89.6z"/>
	<rect x="36.9" y="18.9" class="st21" width="7.2" height="39.8"/>
</g>
</svg>
